<svg width="579" height="579" viewBox="0 0 579 579" fill="none" xmlns="http://www.w3.org/2000/svg">
<path fill-rule="evenodd" clip-rule="evenodd" d="M180.11 118.198C180.279 117.242 181.109 116.546 182.079 116.546H277.777C278.733 116.546 279.555 115.869 279.739 114.931L302.144 0.771639C297.952 0.591165 293.737 0.5 289.5 0.5C129.89 0.5 0.5 129.89 0.5 289.5C0.5 430.521 101.505 547.95 235.118 573.391L272.504 357.248C272.512 357.204 272.52 357.161 272.531 357.117C272.853 355.817 278.009 335.231 285.181 323.791C293.624 310.322 300.399 303.293 313.966 295.006C328.778 285.959 339.217 282.807 356.567 282.341C375.648 281.828 387.775 284.598 403.774 295.006C417.591 303.995 423.291 310.197 430.256 323.791C436.374 335.73 438.028 343.77 438.316 357.182C438.633 371.907 435.879 386.17 430.256 399.783C423.353 416.501 418.088 423.268 403.774 434.325C390.36 444.688 370.384 448.142 356.567 448.142H276.474C275.5 448.142 274.698 448.844 274.533 449.804L252.884 576.202C264.876 577.719 277.097 578.5 289.5 578.5C449.11 578.5 578.5 449.11 578.5 289.5C578.5 140.39 465.574 17.6548 320.58 2.15168L299.006 116.493L299.001 116.516L299.001 116.516C298.998 116.532 298.997 116.54 298.993 116.565C298.841 117.701 291.997 168.693 284.028 198.295C278.414 219.145 271.631 231.443 255.243 245.502C240.273 258.344 216.245 266.227 196.522 266.227H156.294C155.05 266.227 154.119 265.104 154.336 263.879L180.11 118.198ZM152.132 282.347C151.159 282.347 150.342 283.046 150.176 284.005L122.086 445.805C121.873 447.029 122.815 448.148 124.056 448.148H237.534C238.463 448.148 239.258 447.56 239.465 446.654C242.067 435.26 258.514 361.83 256.392 335.311C255.841 328.424 251.007 311.654 240.273 300.769C230.091 290.444 214.942 282.347 199.974 282.347H152.132ZM316.005 118.195C316.16 117.224 316.965 116.541 317.948 116.541L391.11 116.541C398.018 116.541 415.324 120.349 424.5 126.903C432.56 132.66 441.771 140.72 446.377 151.082C450.794 161.021 452.134 172.959 452.134 182.17C452.134 189.932 449.582 201.167 447.528 208.652C443.856 222.039 435.335 235.813 430.257 240.891C421.387 249.762 411.835 257.011 401.472 260.465C389.496 264.457 380.058 266.781 365.779 266.222C365.253 266.201 364.738 266.182 364.233 266.163C355.015 265.812 349.206 265.592 340.448 261.616C331.357 257.49 325.466 253.87 318.572 246.648C312.543 240.333 308.237 233.929 304.755 225.923C301.751 219.015 300.969 206.301 302.453 198.29C307.593 170.529 314.57 127.16 316.005 118.195Z" fill="#0022CE"/>
</svg>
