<svg width="435" height="709" viewBox="0 0 435 709" fill="none" xmlns="http://www.w3.org/2000/svg">
<path d="M0 705.5H172.591C186.399 705.5 197.592 694.307 197.592 680.5V564.5C197.592 550.693 208.784 539.5 222.592 539.5H435" stroke="#EBEBEB" stroke-width="7"/>
<rect width="99.5423" height="7" transform="matrix(1 0 0 -1 335.458 543)" fill="url(#paint0_linear_412_52)"/>
<path d="M0 4H172.591C186.399 4 197.592 15.1929 197.592 29V145C197.592 158.807 208.784 170 222.592 170H435" stroke="#EBEBEB" stroke-width="7"/>
<rect x="335.458" y="166.5" width="99.5423" height="7" fill="url(#paint1_linear_412_52)"/>
<path d="M0.5 353.5V359.5H434.5V353.5H0.5Z" fill="#EBEBEB" stroke="#EBEBEB"/>
<rect x="92" y="353" width="100" height="7" fill="url(#paint2_linear_412_52)"/>
<defs>
<linearGradient id="paint0_linear_412_52" x1="99.5423" y1="3.5" x2="3.0458e-07" y2="3.5" gradientUnits="userSpaceOnUse">
<stop stop-color="#EBEBEB" stop-opacity="0.5"/>
<stop offset="1" stop-color="#0751D4" stop-opacity="0.5"/>
</linearGradient>
<linearGradient id="paint1_linear_412_52" x1="435" y1="170" x2="335.458" y2="170" gradientUnits="userSpaceOnUse">
<stop stop-color="#EBEBEB" stop-opacity="0.5"/>
<stop offset="1" stop-color="#0751D4" stop-opacity="0.5"/>
</linearGradient>
<linearGradient id="paint2_linear_412_52" x1="192" y1="356.5" x2="92" y2="356.5" gradientUnits="userSpaceOnUse">
<stop stop-color="#EBEBEB" stop-opacity="0.5"/>
<stop offset="1" stop-color="#0751D4" stop-opacity="0.5"/>
</linearGradient>
</defs>
</svg>
