<svg width="575" height="575" viewBox="0 0 575 575" fill="none" xmlns="http://www.w3.org/2000/svg">
<path fill-rule="evenodd" clip-rule="evenodd" d="M178.676 117.095C178.845 116.14 179.676 115.444 180.646 115.444H275.829C276.785 115.444 277.607 114.767 277.791 113.829L300.079 0.270228C295.908 0.0906912 291.715 0 287.5 0C128.718 0 0 128.718 0 287.5C0 427.789 100.481 544.609 233.4 569.918L270.592 354.897C270.6 354.853 270.609 354.81 270.619 354.766C270.94 353.47 276.069 332.993 283.203 321.613C291.603 308.214 298.342 301.221 311.839 292.978C326.574 283.978 336.959 280.842 354.219 280.378C373.201 279.868 385.265 282.623 401.181 292.978C414.926 301.92 420.597 308.09 427.526 321.613C433.611 333.49 435.257 341.489 435.544 354.83C435.859 369.48 433.119 383.668 427.526 397.211C420.658 413.841 415.42 420.574 401.181 431.573C387.836 441.882 367.964 445.318 354.219 445.318H274.551C273.577 445.318 272.774 446.021 272.61 446.981L251.074 572.714C263.004 574.223 275.161 575 287.5 575C446.282 575 575 446.282 575 287.5C575 139.164 462.66 17.0658 318.418 1.6431L296.957 115.391C296.95 115.426 296.949 115.427 296.944 115.463C296.792 116.599 289.984 167.322 282.056 196.768C276.472 217.51 269.724 229.744 253.421 243.73C238.529 256.506 214.625 264.348 195.004 264.348H154.998C153.754 264.348 152.823 263.225 153.039 262L178.676 117.095ZM150.854 280.384C149.881 280.384 149.064 281.084 148.898 282.042L120.957 442.982C120.744 444.205 121.686 445.324 122.927 445.324H235.795C236.725 445.324 237.519 444.736 237.726 443.83C240.321 432.468 256.674 359.449 254.564 333.073C254.016 326.223 249.207 309.539 238.528 298.711C228.399 288.439 213.329 280.384 198.439 280.384H150.854ZM313.866 117.093C314.021 116.122 314.826 115.438 315.809 115.438L388.582 115.438C395.455 115.438 412.671 119.226 421.799 125.747C429.817 131.474 438.981 139.492 443.563 149.801C447.957 159.687 449.289 171.564 449.289 180.727C449.289 188.449 446.751 199.625 444.708 207.072C441.055 220.389 432.578 234.092 427.527 239.144C418.702 247.968 409.2 255.179 398.891 258.616C386.977 262.587 377.588 264.899 363.383 264.343C362.86 264.322 362.347 264.303 361.845 264.284C352.675 263.935 346.896 263.716 338.184 259.761C329.14 255.656 323.279 252.055 316.421 244.871C310.424 238.588 306.14 232.218 302.676 224.253C299.687 217.381 298.909 204.733 300.385 196.763C305.498 169.155 312.436 126.031 313.866 117.093Z" fill="white"/>
</svg>
