<svg width="435" height="709" viewBox="0 0 435 709" fill="none" xmlns="http://www.w3.org/2000/svg">
<path d="M435 705.5H262.409C248.601 705.5 237.408 694.307 237.408 680.5V564.5C237.408 550.693 226.216 539.5 212.408 539.5H1.04904e-05" stroke="#EBEBEB" stroke-width="7"/>
<rect x="99.5423" y="543" width="99.5423" height="7" transform="rotate(180 99.5423 543)" fill="url(#paint0_linear_412_53)"/>
<path d="M435 4H262.409C248.601 4 237.408 15.1929 237.408 29V145C237.408 158.807 226.216 170 212.408 170H1.04904e-05" stroke="#EBEBEB" stroke-width="7"/>
<rect width="99.5423" height="7" transform="matrix(-1 0 0 1 99.5423 166.5)" fill="url(#paint1_linear_412_53)"/>
<path d="M434.5 353.5V359.5H0.5V353.5H434.5Z" fill="#EBEBEB" stroke="#EBEBEB"/>
<rect width="100" height="7" transform="matrix(-1 0 0 1 343 353)" fill="url(#paint2_linear_412_53)"/>
<defs>
<linearGradient id="paint0_linear_412_53" x1="199.085" y1="546.5" x2="99.5423" y2="546.5" gradientUnits="userSpaceOnUse">
<stop stop-color="#EBEBEB" stop-opacity="0.5"/>
<stop offset="1" stop-color="#0751D4" stop-opacity="0.5"/>
</linearGradient>
<linearGradient id="paint1_linear_412_53" x1="99.5423" y1="3.5" x2="3.0458e-07" y2="3.5" gradientUnits="userSpaceOnUse">
<stop stop-color="#EBEBEB" stop-opacity="0.5"/>
<stop offset="1" stop-color="#0751D4" stop-opacity="0.5"/>
</linearGradient>
<linearGradient id="paint2_linear_412_53" x1="100" y1="3.5" x2="3.0598e-07" y2="3.5" gradientUnits="userSpaceOnUse">
<stop stop-color="#EBEBEB" stop-opacity="0.5"/>
<stop offset="1" stop-color="#0751D4" stop-opacity="0.5"/>
</linearGradient>
</defs>
</svg>
