<svg width="88" height="88" viewBox="0 0 88 88" fill="none" xmlns="http://www.w3.org/2000/svg">
<g filter="url(#filter0_d_159_203)">
<rect x="10" y="6" width="68" height="68" rx="10" fill="url(#paint0_linear_159_203)" shape-rendering="crispEdges"/>
<path d="M44 23C46.1217 23 48.1566 23.8955 49.6569 25.4896C51.1571 27.0837 52 29.2457 52 31.5C52 33.7543 51.1571 35.9163 49.6569 37.5104C48.1566 39.1045 46.1217 40 44 40C41.8783 40 39.8434 39.1045 38.3431 37.5104C36.8429 35.9163 36 33.7543 36 31.5C36 29.2457 36.8429 27.0837 38.3431 25.4896C39.8434 23.8955 41.8783 23 44 23ZM44 57C44 57 60 57 60 52.75C60 47.65 52.2 42.125 44 42.125C35.8 42.125 28 47.65 28 52.75C28 57 44 57 44 57Z" fill="#0024B4"/>
</g>
<defs>
<filter id="filter0_d_159_203" x="0" y="0" width="88" height="88" filterUnits="userSpaceOnUse" color-interpolation-filters="sRGB">
<feFlood flood-opacity="0" result="BackgroundImageFix"/>
<feColorMatrix in="SourceAlpha" type="matrix" values="0 0 0 0 0 0 0 0 0 0 0 0 0 0 0 0 0 0 127 0" result="hardAlpha"/>
<feOffset dy="4"/>
<feGaussianBlur stdDeviation="5"/>
<feComposite in2="hardAlpha" operator="out"/>
<feColorMatrix type="matrix" values="0 0 0 0 0 0 0 0 0 0 0 0 0 0 0 0 0 0 0.25 0"/>
<feBlend mode="normal" in2="BackgroundImageFix" result="effect1_dropShadow_159_203"/>
<feBlend mode="normal" in="SourceGraphic" in2="effect1_dropShadow_159_203" result="shape"/>
</filter>
<linearGradient id="paint0_linear_159_203" x1="44" y1="6" x2="44" y2="74" gradientUnits="userSpaceOnUse">
<stop stop-color="white"/>
<stop offset="1" stop-color="#CDDBFF"/>
</linearGradient>
</defs>
</svg>
